ISO-10303-21;
HEADER;
/* Generated by software containing ST-Developer
 * from STEP Tools, Inc. (www.steptools.com) 
 */

FILE_DESCRIPTION(
/* description */ (''),
/* implementation_level */ '2;1');

FILE_NAME(
/* name */ 'Body.stp',
/* time_stamp */ '2026-05-26T18:51:21+03:00',
/* author */ ('Artem Sannikov'),
/* organization */ (''),
/* preprocessor_version */ 'ST-DEVELOPER v20.1',
/* originating_system */ 'Autodesk Inventor 2026',
/* authorisation */ '');

FILE_SCHEMA (('AUTOMOTIVE_DESIGN { 1 0 10303 214 3 1 1 }'));
ENDSEC;

DATA;
#10=MECHANICAL_DESIGN_GEOMETRIC_PRESENTATION_REPRESENTATION('',(#15),#408);
#11=CONSTRUCTIVE_GEOMETRY_REPRESENTATION_RELATIONSHIP('CGRR','None',#415,
#12);
#12=CONSTRUCTIVE_GEOMETRY_REPRESENTATION('',(#278),#407);
#13=SHAPE_REPRESENTATION_RELATIONSHIP('SRR','None',#415,#14);
#14=ADVANCED_BREP_SHAPE_REPRESENTATION('',(#16),#407);
#15=STYLED_ITEM('',(#424),#16);
#16=MANIFOLD_SOLID_BREP('\X2\04220432043504400434043E0435\X0\ \X2\04420435043B043E\X0\1',
#239);
#17=FACE_BOUND('',#54,.T.);
#18=FACE_BOUND('',#55,.T.);
#19=FACE_BOUND('',#57,.T.);
#20=FACE_BOUND('',#58,.T.);
#21=PLANE('',#268);
#22=PLANE('',#269);
#23=PLANE('',#270);
#24=PLANE('',#271);
#25=PLANE('',#272);
#26=PLANE('',#273);
#27=PLANE('',#274);
#28=PLANE('',#275);
#29=PLANE('',#276);
#30=PLANE('',#277);
#31=FACE_OUTER_BOUND('',#43,.T.);
#32=FACE_OUTER_BOUND('',#44,.T.);
#33=FACE_OUTER_BOUND('',#45,.T.);
#34=FACE_OUTER_BOUND('',#46,.T.);
#35=FACE_OUTER_BOUND('',#47,.T.);
#36=FACE_OUTER_BOUND('',#48,.T.);
#37=FACE_OUTER_BOUND('',#49,.T.);
#38=FACE_OUTER_BOUND('',#50,.T.);
#39=FACE_OUTER_BOUND('',#51,.T.);
#40=FACE_OUTER_BOUND('',#52,.T.);
#41=FACE_OUTER_BOUND('',#53,.T.);
#42=FACE_OUTER_BOUND('',#56,.T.);
#43=EDGE_LOOP('',(#165,#166,#167,#168));
#44=EDGE_LOOP('',(#169,#170,#171,#172));
#45=EDGE_LOOP('',(#173,#174,#175,#176));
#46=EDGE_LOOP('',(#177,#178,#179,#180));
#47=EDGE_LOOP('',(#181,#182,#183,#184));
#48=EDGE_LOOP('',(#185,#186,#187,#188));
#49=EDGE_LOOP('',(#189,#190,#191,#192));
#50=EDGE_LOOP('',(#193,#194,#195,#196));
#51=EDGE_LOOP('',(#197,#198,#199,#200));
#52=EDGE_LOOP('',(#201,#202,#203,#204));
#53=EDGE_LOOP('',(#205,#206,#207,#208,#209,#210,#211,#212));
#54=EDGE_LOOP('',(#213));
#55=EDGE_LOOP('',(#214));
#56=EDGE_LOOP('',(#215,#216,#217,#218,#219,#220,#221,#222));
#57=EDGE_LOOP('',(#223));
#58=EDGE_LOOP('',(#224));
#59=LINE('',#346,#85);
#60=LINE('',#352,#86);
#61=LINE('',#357,#87);
#62=LINE('',#359,#88);
#63=LINE('',#361,#89);
#64=LINE('',#362,#90);
#65=LINE('',#365,#91);
#66=LINE('',#367,#92);
#67=LINE('',#368,#93);
#68=LINE('',#371,#94);
#69=LINE('',#373,#95);
#70=LINE('',#374,#96);
#71=LINE('',#377,#97);
#72=LINE('',#379,#98);
#73=LINE('',#380,#99);
#74=LINE('',#383,#100);
#75=LINE('',#385,#101);
#76=LINE('',#386,#102);
#77=LINE('',#389,#103);
#78=LINE('',#391,#104);
#79=LINE('',#392,#105);
#80=LINE('',#395,#106);
#81=LINE('',#397,#107);
#82=LINE('',#398,#108);
#83=LINE('',#400,#109);
#84=LINE('',#401,#110);
#85=VECTOR('',#285,10.);
#86=VECTOR('',#292,10.);
#87=VECTOR('',#297,10.);
#88=VECTOR('',#298,10.);
#89=VECTOR('',#299,10.);
#90=VECTOR('',#300,10.);
#91=VECTOR('',#303,10.);
#92=VECTOR('',#304,10.);
#93=VECTOR('',#305,10.);
#94=VECTOR('',#308,10.);
#95=VECTOR('',#309,10.);
#96=VECTOR('',#310,10.);
#97=VECTOR('',#313,10.);
#98=VECTOR('',#314,10.);
#99=VECTOR('',#315,10.);
#100=VECTOR('',#318,10.);
#101=VECTOR('',#319,10.);
#102=VECTOR('',#320,10.);
#103=VECTOR('',#323,10.);
#104=VECTOR('',#324,10.);
#105=VECTOR('',#325,10.);
#106=VECTOR('',#328,10.);
#107=VECTOR('',#329,10.);
#108=VECTOR('',#330,10.);
#109=VECTOR('',#333,10.);
#110=VECTOR('',#334,10.);
#111=CIRCLE('',#263,10.);
#112=CIRCLE('',#264,10.);
#113=CIRCLE('',#266,10.);
#114=CIRCLE('',#267,10.);
#115=VERTEX_POINT('',#343);
#116=VERTEX_POINT('',#345);
#117=VERTEX_POINT('',#349);
#118=VERTEX_POINT('',#351);
#119=VERTEX_POINT('',#355);
#120=VERTEX_POINT('',#356);
#121=VERTEX_POINT('',#358);
#122=VERTEX_POINT('',#360);
#123=VERTEX_POINT('',#364);
#124=VERTEX_POINT('',#366);
#125=VERTEX_POINT('',#370);
#126=VERTEX_POINT('',#372);
#127=VERTEX_POINT('',#376);
#128=VERTEX_POINT('',#378);
#129=VERTEX_POINT('',#382);
#130=VERTEX_POINT('',#384);
#131=VERTEX_POINT('',#388);
#132=VERTEX_POINT('',#390);
#133=VERTEX_POINT('',#394);
#134=VERTEX_POINT('',#396);
#135=EDGE_CURVE('',#115,#115,#111,.T.);
#136=EDGE_CURVE('',#115,#116,#59,.T.);
#137=EDGE_CURVE('',#116,#116,#112,.T.);
#138=EDGE_CURVE('',#117,#117,#113,.T.);
#139=EDGE_CURVE('',#117,#118,#60,.T.);
#140=EDGE_CURVE('',#118,#118,#114,.T.);
#141=EDGE_CURVE('',#119,#120,#61,.T.);
#142=EDGE_CURVE('',#120,#121,#62,.T.);
#143=EDGE_CURVE('',#122,#121,#63,.T.);
#144=EDGE_CURVE('',#119,#122,#64,.T.);
#145=EDGE_CURVE('',#123,#119,#65,.T.);
#146=EDGE_CURVE('',#124,#122,#66,.T.);
#147=EDGE_CURVE('',#123,#124,#67,.T.);
#148=EDGE_CURVE('',#125,#123,#68,.T.);
#149=EDGE_CURVE('',#126,#124,#69,.T.);
#150=EDGE_CURVE('',#125,#126,#70,.T.);
#151=EDGE_CURVE('',#127,#125,#71,.T.);
#152=EDGE_CURVE('',#128,#126,#72,.T.);
#153=EDGE_CURVE('',#127,#128,#73,.T.);
#154=EDGE_CURVE('',#129,#127,#74,.T.);
#155=EDGE_CURVE('',#130,#128,#75,.T.);
#156=EDGE_CURVE('',#129,#130,#76,.T.);
#157=EDGE_CURVE('',#131,#129,#77,.T.);
#158=EDGE_CURVE('',#132,#130,#78,.T.);
#159=EDGE_CURVE('',#131,#132,#79,.T.);
#160=EDGE_CURVE('',#133,#131,#80,.T.);
#161=EDGE_CURVE('',#134,#132,#81,.T.);
#162=EDGE_CURVE('',#133,#134,#82,.T.);
#163=EDGE_CURVE('',#120,#133,#83,.T.);
#164=EDGE_CURVE('',#121,#134,#84,.T.);
#165=ORIENTED_EDGE('',*,*,#135,.F.);
#166=ORIENTED_EDGE('',*,*,#136,.T.);
#167=ORIENTED_EDGE('',*,*,#137,.F.);
#168=ORIENTED_EDGE('',*,*,#136,.F.);
#169=ORIENTED_EDGE('',*,*,#138,.F.);
#170=ORIENTED_EDGE('',*,*,#139,.T.);
#171=ORIENTED_EDGE('',*,*,#140,.F.);
#172=ORIENTED_EDGE('',*,*,#139,.F.);
#173=ORIENTED_EDGE('',*,*,#141,.T.);
#174=ORIENTED_EDGE('',*,*,#142,.T.);
#175=ORIENTED_EDGE('',*,*,#143,.F.);
#176=ORIENTED_EDGE('',*,*,#144,.F.);
#177=ORIENTED_EDGE('',*,*,#145,.T.);
#178=ORIENTED_EDGE('',*,*,#144,.T.);
#179=ORIENTED_EDGE('',*,*,#146,.F.);
#180=ORIENTED_EDGE('',*,*,#147,.F.);
#181=ORIENTED_EDGE('',*,*,#148,.T.);
#182=ORIENTED_EDGE('',*,*,#147,.T.);
#183=ORIENTED_EDGE('',*,*,#149,.F.);
#184=ORIENTED_EDGE('',*,*,#150,.F.);
#185=ORIENTED_EDGE('',*,*,#151,.T.);
#186=ORIENTED_EDGE('',*,*,#150,.T.);
#187=ORIENTED_EDGE('',*,*,#152,.F.);
#188=ORIENTED_EDGE('',*,*,#153,.F.);
#189=ORIENTED_EDGE('',*,*,#154,.T.);
#190=ORIENTED_EDGE('',*,*,#153,.T.);
#191=ORIENTED_EDGE('',*,*,#155,.F.);
#192=ORIENTED_EDGE('',*,*,#156,.F.);
#193=ORIENTED_EDGE('',*,*,#157,.T.);
#194=ORIENTED_EDGE('',*,*,#156,.T.);
#195=ORIENTED_EDGE('',*,*,#158,.F.);
#196=ORIENTED_EDGE('',*,*,#159,.F.);
#197=ORIENTED_EDGE('',*,*,#160,.T.);
#198=ORIENTED_EDGE('',*,*,#159,.T.);
#199=ORIENTED_EDGE('',*,*,#161,.F.);
#200=ORIENTED_EDGE('',*,*,#162,.F.);
#201=ORIENTED_EDGE('',*,*,#163,.T.);
#202=ORIENTED_EDGE('',*,*,#162,.T.);
#203=ORIENTED_EDGE('',*,*,#164,.F.);
#204=ORIENTED_EDGE('',*,*,#142,.F.);
#205=ORIENTED_EDGE('',*,*,#164,.T.);
#206=ORIENTED_EDGE('',*,*,#161,.T.);
#207=ORIENTED_EDGE('',*,*,#158,.T.);
#208=ORIENTED_EDGE('',*,*,#155,.T.);
#209=ORIENTED_EDGE('',*,*,#152,.T.);
#210=ORIENTED_EDGE('',*,*,#149,.T.);
#211=ORIENTED_EDGE('',*,*,#146,.T.);
#212=ORIENTED_EDGE('',*,*,#143,.T.);
#213=ORIENTED_EDGE('',*,*,#137,.T.);
#214=ORIENTED_EDGE('',*,*,#140,.T.);
#215=ORIENTED_EDGE('',*,*,#163,.F.);
#216=ORIENTED_EDGE('',*,*,#141,.F.);
#217=ORIENTED_EDGE('',*,*,#145,.F.);
#218=ORIENTED_EDGE('',*,*,#148,.F.);
#219=ORIENTED_EDGE('',*,*,#151,.F.);
#220=ORIENTED_EDGE('',*,*,#154,.F.);
#221=ORIENTED_EDGE('',*,*,#157,.F.);
#222=ORIENTED_EDGE('',*,*,#160,.F.);
#223=ORIENTED_EDGE('',*,*,#135,.T.);
#224=ORIENTED_EDGE('',*,*,#138,.T.);
#225=CYLINDRICAL_SURFACE('',#262,10.);
#226=CYLINDRICAL_SURFACE('',#265,10.);
#227=ADVANCED_FACE('',(#31),#225,.F.);
#228=ADVANCED_FACE('',(#32),#226,.F.);
#229=ADVANCED_FACE('',(#33),#21,.T.);
#230=ADVANCED_FACE('',(#34),#22,.T.);
#231=ADVANCED_FACE('',(#35),#23,.T.);
#232=ADVANCED_FACE('',(#36),#24,.T.);
#233=ADVANCED_FACE('',(#37),#25,.T.);
#234=ADVANCED_FACE('',(#38),#26,.T.);
#235=ADVANCED_FACE('',(#39),#27,.T.);
#236=ADVANCED_FACE('',(#40),#28,.T.);
#237=ADVANCED_FACE('',(#41,#17,#18),#29,.T.);
#238=ADVANCED_FACE('',(#42,#19,#20),#30,.F.);
#239=CLOSED_SHELL('',(#227,#228,#229,#230,#231,#232,#233,#234,#235,#236,
#237,#238));
#240=DERIVED_UNIT_ELEMENT(#243,1.);
#241=DERIVED_UNIT_ELEMENT(#410,-3.);
#242=DIMENSIONAL_EXPONENTS(0.,1.,0.,0.,0.,0.,0.);
#243=(
CONVERSION_BASED_UNIT('gram',#245)
MASS_UNIT()
NAMED_UNIT(#242)
);
#244=(
MASS_UNIT()
NAMED_UNIT(*)
SI_UNIT(.KILO.,.GRAM.)
);
#245=MASS_MEASURE_WITH_UNIT(MASS_MEASURE(0.001),#244);
#246=DERIVED_UNIT((#240,#241));
#247=MEASURE_REPRESENTATION_ITEM('density measure',
POSITIVE_RATIO_MEASURE(1.),#246);
#248=PROPERTY_DEFINITION_REPRESENTATION(#253,#250);
#249=PROPERTY_DEFINITION_REPRESENTATION(#254,#251);
#250=REPRESENTATION('material name',(#252),#407);
#251=REPRESENTATION('density',(#247),#407);
#252=DESCRIPTIVE_REPRESENTATION_ITEM('\X2\04220438043F043E0432044B0435\X0\',
'\X2\04220438043F043E0432044B0435\X0\');
#253=PROPERTY_DEFINITION('material property','material name',#417);
#254=PROPERTY_DEFINITION('material property','density of part',#417);
#255=DATE_TIME_ROLE('creation_date');
#256=APPLIED_DATE_AND_TIME_ASSIGNMENT(#257,#255,(#417));
#257=DATE_AND_TIME(#258,#259);
#258=CALENDAR_DATE(2026,19,4);
#259=LOCAL_TIME(0,0,0.,#260);
#260=COORDINATED_UNIVERSAL_TIME_OFFSET(0,0,.BEHIND.);
#261=AXIS2_PLACEMENT_3D('',#341,#279,#280);
#262=AXIS2_PLACEMENT_3D('',#342,#281,#282);
#263=AXIS2_PLACEMENT_3D('',#344,#283,#284);
#264=AXIS2_PLACEMENT_3D('',#347,#286,#287);
#265=AXIS2_PLACEMENT_3D('',#348,#288,#289);
#266=AXIS2_PLACEMENT_3D('',#350,#290,#291);
#267=AXIS2_PLACEMENT_3D('',#353,#293,#294);
#268=AXIS2_PLACEMENT_3D('',#354,#295,#296);
#269=AXIS2_PLACEMENT_3D('',#363,#301,#302);
#270=AXIS2_PLACEMENT_3D('',#369,#306,#307);
#271=AXIS2_PLACEMENT_3D('',#375,#311,#312);
#272=AXIS2_PLACEMENT_3D('',#381,#316,#317);
#273=AXIS2_PLACEMENT_3D('',#387,#321,#322);
#274=AXIS2_PLACEMENT_3D('',#393,#326,#327);
#275=AXIS2_PLACEMENT_3D('',#399,#331,#332);
#276=AXIS2_PLACEMENT_3D('',#402,#335,#336);
#277=AXIS2_PLACEMENT_3D('',#403,#337,#338);
#278=AXIS2_PLACEMENT_3D('\X2\041F0421041A\X0\1',#404,#339,#340);
#279=DIRECTION('axis',(0.,0.,1.));
#280=DIRECTION('refdir',(1.,0.,0.));
#281=DIRECTION('center_axis',(0.,0.,1.));
#282=DIRECTION('ref_axis',(-1.,0.,0.));
#283=DIRECTION('center_axis',(0.,0.,1.));
#284=DIRECTION('ref_axis',(-1.,0.,0.));
#285=DIRECTION('',(0.,0.,1.));
#286=DIRECTION('center_axis',(0.,0.,-1.));
#287=DIRECTION('ref_axis',(-1.,0.,0.));
#288=DIRECTION('center_axis',(0.,0.,1.));
#289=DIRECTION('ref_axis',(-1.,0.,0.));
#290=DIRECTION('center_axis',(0.,0.,1.));
#291=DIRECTION('ref_axis',(-1.,0.,0.));
#292=DIRECTION('',(0.,0.,1.));
#293=DIRECTION('center_axis',(0.,0.,-1.));
#294=DIRECTION('ref_axis',(-1.,0.,0.));
#295=DIRECTION('center_axis',(-0.712566849729843,-0.701604222240778,0.));
#296=DIRECTION('ref_axis',(0.701604222240778,-0.712566849729843,0.));
#297=DIRECTION('',(0.701604222240778,-0.712566849729843,0.));
#298=DIRECTION('',(0.,0.,1.));
#299=DIRECTION('',(0.701604222240778,-0.712566849729843,0.));
#300=DIRECTION('',(0.,0.,1.));
#301=DIRECTION('center_axis',(-1.,-1.72735757037864E-16,0.));
#302=DIRECTION('ref_axis',(1.72735757037864E-16,-1.,0.));
#303=DIRECTION('',(1.72735757037864E-16,-1.,0.));
#304=DIRECTION('',(1.72735757037864E-16,-1.,0.));
#305=DIRECTION('',(0.,0.,1.));
#306=DIRECTION('center_axis',(-0.599339753289571,0.800494759587342,0.));
#307=DIRECTION('ref_axis',(-0.800494759587342,-0.599339753289571,0.));
#308=DIRECTION('',(-0.800494759587342,-0.599339753289571,0.));
#309=DIRECTION('',(-0.800494759587342,-0.599339753289571,0.));
#310=DIRECTION('',(0.,0.,1.));
#311=DIRECTION('center_axis',(0.,1.,0.));
#312=DIRECTION('ref_axis',(-1.,0.,0.));
#313=DIRECTION('',(-1.,0.,0.));
#314=DIRECTION('',(-1.,0.,0.));
#315=DIRECTION('',(0.,0.,1.));
#316=DIRECTION('center_axis',(0.96731341097984,0.253583842029708,0.));
#317=DIRECTION('ref_axis',(-0.253583842029708,0.96731341097984,0.));
#318=DIRECTION('',(-0.253583842029708,0.96731341097984,0.));
#319=DIRECTION('',(-0.253583842029708,0.96731341097984,0.));
#320=DIRECTION('',(0.,0.,1.));
#321=DIRECTION('center_axis',(1.,0.,0.));
#322=DIRECTION('ref_axis',(0.,1.,0.));
#323=DIRECTION('',(0.,1.,0.));
#324=DIRECTION('',(0.,1.,0.));
#325=DIRECTION('',(0.,0.,1.));
#326=DIRECTION('center_axis',(0.701604222240778,-0.712566849729843,0.));
#327=DIRECTION('ref_axis',(0.712566849729843,0.701604222240778,0.));
#328=DIRECTION('',(0.712566849729843,0.701604222240778,0.));
#329=DIRECTION('',(0.712566849729843,0.701604222240778,0.));
#330=DIRECTION('',(0.,0.,1.));
#331=DIRECTION('center_axis',(0.,-1.,0.));
#332=DIRECTION('ref_axis',(1.,0.,0.));
#333=DIRECTION('',(1.,0.,0.));
#334=DIRECTION('',(1.,0.,0.));
#335=DIRECTION('center_axis',(0.,0.,1.));
#336=DIRECTION('ref_axis',(1.,0.,0.));
#337=DIRECTION('center_axis',(0.,0.,1.));
#338=DIRECTION('ref_axis',(1.,0.,0.));
#339=DIRECTION('center_axis',(-0.99782079553073,-0.0659822703945637,0.));
#340=DIRECTION('ref_axis',(0.0659822703945637,-0.99782079553073,0.));
#341=CARTESIAN_POINT('',(0.,0.,0.));
#342=CARTESIAN_POINT('Origin',(117.324009276189,-35.3960565140685,0.));
#343=CARTESIAN_POINT('',(127.324009276189,-35.3960565140685,0.));
#344=CARTESIAN_POINT('Origin',(117.324009276189,-35.3960565140685,0.));
#345=CARTESIAN_POINT('',(127.324009276189,-35.3960565140685,400.));
#346=CARTESIAN_POINT('',(127.324009276189,-35.3960565140685,0.));
#347=CARTESIAN_POINT('Origin',(117.324009276189,-35.3960565140685,400.));
#348=CARTESIAN_POINT('Origin',(117.324009276189,576.154269965994,0.));
#349=CARTESIAN_POINT('',(127.324009276189,576.154269965994,0.));
#350=CARTESIAN_POINT('Origin',(117.324009276189,576.154269965994,0.));
#351=CARTESIAN_POINT('',(127.324009276189,576.154269965994,400.));
#352=CARTESIAN_POINT('',(127.324009276189,576.154269965994,0.));
#353=CARTESIAN_POINT('Origin',(117.324009276189,576.154269965994,400.));
#354=CARTESIAN_POINT('Origin',(29.9018248862815,-80.1068291133797,0.));
#355=CARTESIAN_POINT('',(29.9018248862815,-80.1068291133797,0.));
#356=CARTESIAN_POINT('',(83.7740228339558,-134.820784877493,0.));
#357=CARTESIAN_POINT('',(29.9018248862815,-80.1068291133797,0.));
#358=CARTESIAN_POINT('',(83.7740228339558,-134.820784877493,400.));
#359=CARTESIAN_POINT('',(83.7740228339558,-134.820784877493,0.));
#360=CARTESIAN_POINT('',(29.9018248862815,-80.1068291133797,400.));
#361=CARTESIAN_POINT('',(29.9018248862815,-80.1068291133797,400.));
#362=CARTESIAN_POINT('',(29.9018248862815,-80.1068291133797,0.));
#363=CARTESIAN_POINT('Origin',(29.9018248862814,588.331463808836,0.));
#364=CARTESIAN_POINT('',(29.9018248862814,588.331463808836,0.));
#365=CARTESIAN_POINT('',(29.9018248862814,588.331463808836,0.));
#366=CARTESIAN_POINT('',(29.9018248862814,588.331463808836,400.));
#367=CARTESIAN_POINT('',(29.9018248862814,588.331463808836,400.));
#368=CARTESIAN_POINT('',(29.9018248862814,588.331463808836,0.));
#369=CARTESIAN_POINT('Origin',(87.3973094731382,631.379003014858,0.));
#370=CARTESIAN_POINT('',(87.3973094731382,631.379003014858,0.));
#371=CARTESIAN_POINT('',(87.3973094731382,631.379003014858,0.));
#372=CARTESIAN_POINT('',(87.3973094731382,631.379003014858,400.));
#373=CARTESIAN_POINT('',(87.3973094731382,631.379003014858,400.));
#374=CARTESIAN_POINT('',(87.3973094731382,631.379003014858,0.));
#375=CARTESIAN_POINT('Origin',(189.080984021917,631.379003014858,0.));
#376=CARTESIAN_POINT('',(189.080984021917,631.379003014858,0.));
#377=CARTESIAN_POINT('',(189.080984021917,631.379003014858,0.));
#378=CARTESIAN_POINT('',(189.080984021917,631.379003014858,400.));
#379=CARTESIAN_POINT('',(189.080984021917,631.379003014858,400.));
#380=CARTESIAN_POINT('',(189.080984021917,631.379003014858,0.));
#381=CARTESIAN_POINT('Origin',(202.563247167521,579.949961453238,0.));
#382=CARTESIAN_POINT('',(202.563247167521,579.949961453238,0.));
#383=CARTESIAN_POINT('',(202.563247167521,579.949961453238,0.));
#384=CARTESIAN_POINT('',(202.563247167521,579.949961453238,400.));
#385=CARTESIAN_POINT('',(202.563247167521,579.949961453238,400.));
#386=CARTESIAN_POINT('',(202.563247167521,579.949961453238,0.));
#387=CARTESIAN_POINT('Origin',(202.563247167521,-96.8736540769444,0.));
#388=CARTESIAN_POINT('',(202.563247167521,-96.8736540769444,0.));
#389=CARTESIAN_POINT('',(202.563247167521,-96.8736540769444,0.));
#390=CARTESIAN_POINT('',(202.563247167521,-96.8736540769444,400.));
#391=CARTESIAN_POINT('',(202.563247167521,-96.8736540769444,400.));
#392=CARTESIAN_POINT('',(202.563247167521,-96.8736540769444,0.));
#393=CARTESIAN_POINT('Origin',(164.023189121015,-134.820784877493,0.));
#394=CARTESIAN_POINT('',(164.023189121015,-134.820784877493,0.));
#395=CARTESIAN_POINT('',(164.023189121015,-134.820784877493,0.));
#396=CARTESIAN_POINT('',(164.023189121015,-134.820784877493,400.));
#397=CARTESIAN_POINT('',(164.023189121015,-134.820784877493,400.));
#398=CARTESIAN_POINT('',(164.023189121015,-134.820784877493,0.));
#399=CARTESIAN_POINT('Origin',(83.7740228339558,-134.820784877493,0.));
#400=CARTESIAN_POINT('',(83.7740228339558,-134.820784877493,0.));
#401=CARTESIAN_POINT('',(83.7740228339558,-134.820784877493,400.));
#402=CARTESIAN_POINT('Origin',(116.232536026901,248.279109068683,400.));
#403=CARTESIAN_POINT('Origin',(116.232536026901,248.279109068683,0.));
#404=CARTESIAN_POINT('Origin',(117.324009276189,-35.3960565140685,0.));
#405=UNCERTAINTY_MEASURE_WITH_UNIT(LENGTH_MEASURE(0.01),#409,
'DISTANCE_ACCURACY_VALUE',
'Maximum model space distance between geometric entities at asserted c
onnectivities');
#406=UNCERTAINTY_MEASURE_WITH_UNIT(LENGTH_MEASURE(0.01),#409,
'DISTANCE_ACCURACY_VALUE',
'Maximum model space distance between geometric entities at asserted c
onnectivities');
#407=(
GEOMETRIC_REPRESENTATION_CONTEXT(3)
GLOBAL_UNCERTAINTY_ASSIGNED_CONTEXT((#405))
GLOBAL_UNIT_ASSIGNED_CONTEXT((#409,#411,#412))
REPRESENTATION_CONTEXT('','3D')
);
#408=(
GEOMETRIC_REPRESENTATION_CONTEXT(3)
GLOBAL_UNCERTAINTY_ASSIGNED_CONTEXT((#406))
GLOBAL_UNIT_ASSIGNED_CONTEXT((#409,#411,#412))
REPRESENTATION_CONTEXT('','3D')
);
#409=(
LENGTH_UNIT()
NAMED_UNIT(*)
SI_UNIT(.MILLI.,.METRE.)
);
#410=(
LENGTH_UNIT()
NAMED_UNIT(*)
SI_UNIT(.CENTI.,.METRE.)
);
#411=(
NAMED_UNIT(*)
PLANE_ANGLE_UNIT()
SI_UNIT($,.RADIAN.)
);
#412=(
NAMED_UNIT(*)
SI_UNIT($,.STERADIAN.)
SOLID_ANGLE_UNIT()
);
#413=SHAPE_DEFINITION_REPRESENTATION(#414,#415);
#414=PRODUCT_DEFINITION_SHAPE('',$,#417);
#415=SHAPE_REPRESENTATION('',(#261),#407);
#416=PRODUCT_DEFINITION_CONTEXT('part definition',#421,'design');
#417=PRODUCT_DEFINITION('\X2\04220435043B043E\X0\','\X2\04220435043B043E\X0\',
#418,#416);
#418=PRODUCT_DEFINITION_FORMATION('',$,#423);
#419=PRODUCT_RELATED_PRODUCT_CATEGORY('\X2\04220435043B043E\X0\',
'\X2\04220435043B043E\X0\',(#423));
#420=APPLICATION_PROTOCOL_DEFINITION('international standard',
'automotive_design',2009,#421);
#421=APPLICATION_CONTEXT(
'Core Data for Automotive Mechanical Design Process');
#422=PRODUCT_CONTEXT('part definition',#421,'mechanical');
#423=PRODUCT('\X2\04220435043B043E\X0\','\X2\04220435043B043E\X0\',$,(#422));
#424=PRESENTATION_STYLE_ASSIGNMENT((#425));
#425=SURFACE_STYLE_USAGE(.BOTH.,#428);
#426=SURFACE_STYLE_RENDERING_WITH_PROPERTIES($,#432,(#427));
#427=SURFACE_STYLE_TRANSPARENT(0.);
#428=SURFACE_SIDE_STYLE('',(#429,#426));
#429=SURFACE_STYLE_FILL_AREA(#430);
#430=FILL_AREA_STYLE('',(#431));
#431=FILL_AREA_STYLE_COLOUR('',#432);
#432=COLOUR_RGB('',0.749019607843137,0.749019607843137,0.749019607843137);
ENDSEC;
END-ISO-10303-21;
