ISO-10303-21;
HEADER;
/* Generated by software containing ST-Developer
 * from STEP Tools, Inc. (www.steptools.com) 
 */

FILE_DESCRIPTION(
/* description */ (''),
/* implementation_level */ '2;1');

FILE_NAME(
/* name */ 'knee.stp',
/* time_stamp */ '2026-05-26T18:52:16+03:00',
/* author */ ('Artem Sannikov'),
/* organization */ (''),
/* preprocessor_version */ 'ST-DEVELOPER v20.1',
/* originating_system */ 'Autodesk Inventor 2026',
/* authorisation */ '');

FILE_SCHEMA (('AUTOMOTIVE_DESIGN { 1 0 10303 214 3 1 1 }'));
ENDSEC;

DATA;
#10=MECHANICAL_DESIGN_GEOMETRIC_PRESENTATION_REPRESENTATION('',(#13),#331);
#11=SHAPE_REPRESENTATION_RELATIONSHIP('SRR','None',#338,#12);
#12=ADVANCED_BREP_SHAPE_REPRESENTATION('',(#14),#330);
#13=STYLED_ITEM('',(#347),#14);
#14=MANIFOLD_SOLID_BREP('\X2\04220432043504400434043E0435\X0\ \X2\04420435043B043E\X0\1',
#178);
#15=FACE_BOUND('',#42,.T.);
#16=FACE_BOUND('',#43,.T.);
#17=FACE_BOUND('',#49,.T.);
#18=PLANE('',#204);
#19=PLANE('',#208);
#20=PLANE('',#209);
#21=PLANE('',#213);
#22=PLANE('',#216);
#23=PLANE('',#219);
#24=PLANE('',#222);
#25=FACE_OUTER_BOUND('',#37,.T.);
#26=FACE_OUTER_BOUND('',#38,.T.);
#27=FACE_OUTER_BOUND('',#39,.T.);
#28=FACE_OUTER_BOUND('',#40,.T.);
#29=FACE_OUTER_BOUND('',#41,.T.);
#30=FACE_OUTER_BOUND('',#44,.T.);
#31=FACE_OUTER_BOUND('',#45,.T.);
#32=FACE_OUTER_BOUND('',#46,.T.);
#33=FACE_OUTER_BOUND('',#47,.T.);
#34=FACE_OUTER_BOUND('',#48,.T.);
#35=FACE_OUTER_BOUND('',#50,.T.);
#36=FACE_OUTER_BOUND('',#51,.T.);
#37=EDGE_LOOP('',(#119,#120,#121,#122));
#38=EDGE_LOOP('',(#123));
#39=EDGE_LOOP('',(#124,#125,#126,#127));
#40=EDGE_LOOP('',(#128));
#41=EDGE_LOOP('',(#129,#130,#131,#132));
#42=EDGE_LOOP('',(#133));
#43=EDGE_LOOP('',(#134));
#44=EDGE_LOOP('',(#135,#136,#137,#138));
#45=EDGE_LOOP('',(#139,#140,#141,#142));
#46=EDGE_LOOP('',(#143,#144,#145,#146));
#47=EDGE_LOOP('',(#147,#148,#149,#150));
#48=EDGE_LOOP('',(#151,#152,#153,#154));
#49=EDGE_LOOP('',(#155));
#50=EDGE_LOOP('',(#156,#157,#158,#159));
#51=EDGE_LOOP('',(#160));
#52=LINE('',#285,#63);
#53=LINE('',#292,#64);
#54=LINE('',#300,#65);
#55=LINE('',#303,#66);
#56=LINE('',#308,#67);
#57=LINE('',#310,#68);
#58=LINE('',#311,#69);
#59=LINE('',#315,#70);
#60=LINE('',#318,#71);
#61=LINE('',#319,#72);
#62=LINE('',#325,#73);
#63=VECTOR('',#229,10.);
#64=VECTOR('',#238,14.555);
#65=VECTOR('',#247,10.);
#66=VECTOR('',#250,10.);
#67=VECTOR('',#255,10.);
#68=VECTOR('',#256,10.);
#69=VECTOR('',#257,10.);
#70=VECTOR('',#262,10.);
#71=VECTOR('',#265,10.);
#72=VECTOR('',#266,10.);
#73=VECTOR('',#275,14.5551581244756);
#74=CIRCLE('',#202,10.);
#75=CIRCLE('',#203,10.);
#76=CIRCLE('',#206,14.555);
#77=CIRCLE('',#207,14.555);
#78=CIRCLE('',#210,30.);
#79=CIRCLE('',#211,30.);
#80=CIRCLE('',#212,14.5551581244756);
#81=CIRCLE('',#215,30.);
#82=CIRCLE('',#218,30.);
#83=CIRCLE('',#221,14.5551581244756);
#84=VERTEX_POINT('',#282);
#85=VERTEX_POINT('',#284);
#86=VERTEX_POINT('',#289);
#87=VERTEX_POINT('',#291);
#88=VERTEX_POINT('',#296);
#89=VERTEX_POINT('',#297);
#90=VERTEX_POINT('',#299);
#91=VERTEX_POINT('',#301);
#92=VERTEX_POINT('',#304);
#93=VERTEX_POINT('',#307);
#94=VERTEX_POINT('',#309);
#95=VERTEX_POINT('',#313);
#96=VERTEX_POINT('',#317);
#97=VERTEX_POINT('',#324);
#98=EDGE_CURVE('',#84,#84,#74,.T.);
#99=EDGE_CURVE('',#84,#85,#52,.T.);
#100=EDGE_CURVE('',#85,#85,#75,.T.);
#101=EDGE_CURVE('',#86,#86,#76,.T.);
#102=EDGE_CURVE('',#86,#87,#53,.T.);
#103=EDGE_CURVE('',#87,#87,#77,.T.);
#104=EDGE_CURVE('',#88,#89,#78,.T.);
#105=EDGE_CURVE('',#90,#88,#54,.T.);
#106=EDGE_CURVE('',#91,#90,#79,.T.);
#107=EDGE_CURVE('',#89,#91,#55,.T.);
#108=EDGE_CURVE('',#92,#92,#80,.T.);
#109=EDGE_CURVE('',#88,#93,#56,.T.);
#110=EDGE_CURVE('',#94,#93,#57,.T.);
#111=EDGE_CURVE('',#90,#94,#58,.T.);
#112=EDGE_CURVE('',#95,#94,#81,.T.);
#113=EDGE_CURVE('',#91,#95,#59,.T.);
#114=EDGE_CURVE('',#96,#95,#60,.T.);
#115=EDGE_CURVE('',#89,#96,#61,.T.);
#116=EDGE_CURVE('',#93,#96,#82,.T.);
#117=EDGE_CURVE('',#92,#97,#62,.T.);
#118=EDGE_CURVE('',#97,#97,#83,.T.);
#119=ORIENTED_EDGE('',*,*,#98,.F.);
#120=ORIENTED_EDGE('',*,*,#99,.T.);
#121=ORIENTED_EDGE('',*,*,#100,.T.);
#122=ORIENTED_EDGE('',*,*,#99,.F.);
#123=ORIENTED_EDGE('',*,*,#100,.F.);
#124=ORIENTED_EDGE('',*,*,#101,.F.);
#125=ORIENTED_EDGE('',*,*,#102,.T.);
#126=ORIENTED_EDGE('',*,*,#103,.F.);
#127=ORIENTED_EDGE('',*,*,#102,.F.);
#128=ORIENTED_EDGE('',*,*,#101,.T.);
#129=ORIENTED_EDGE('',*,*,#104,.F.);
#130=ORIENTED_EDGE('',*,*,#105,.F.);
#131=ORIENTED_EDGE('',*,*,#106,.F.);
#132=ORIENTED_EDGE('',*,*,#107,.F.);
#133=ORIENTED_EDGE('',*,*,#103,.T.);
#134=ORIENTED_EDGE('',*,*,#108,.T.);
#135=ORIENTED_EDGE('',*,*,#105,.T.);
#136=ORIENTED_EDGE('',*,*,#109,.T.);
#137=ORIENTED_EDGE('',*,*,#110,.F.);
#138=ORIENTED_EDGE('',*,*,#111,.F.);
#139=ORIENTED_EDGE('',*,*,#106,.T.);
#140=ORIENTED_EDGE('',*,*,#111,.T.);
#141=ORIENTED_EDGE('',*,*,#112,.F.);
#142=ORIENTED_EDGE('',*,*,#113,.F.);
#143=ORIENTED_EDGE('',*,*,#107,.T.);
#144=ORIENTED_EDGE('',*,*,#113,.T.);
#145=ORIENTED_EDGE('',*,*,#114,.F.);
#146=ORIENTED_EDGE('',*,*,#115,.F.);
#147=ORIENTED_EDGE('',*,*,#104,.T.);
#148=ORIENTED_EDGE('',*,*,#115,.T.);
#149=ORIENTED_EDGE('',*,*,#116,.F.);
#150=ORIENTED_EDGE('',*,*,#109,.F.);
#151=ORIENTED_EDGE('',*,*,#116,.T.);
#152=ORIENTED_EDGE('',*,*,#114,.T.);
#153=ORIENTED_EDGE('',*,*,#112,.T.);
#154=ORIENTED_EDGE('',*,*,#110,.T.);
#155=ORIENTED_EDGE('',*,*,#98,.T.);
#156=ORIENTED_EDGE('',*,*,#108,.F.);
#157=ORIENTED_EDGE('',*,*,#117,.T.);
#158=ORIENTED_EDGE('',*,*,#118,.T.);
#159=ORIENTED_EDGE('',*,*,#117,.F.);
#160=ORIENTED_EDGE('',*,*,#118,.F.);
#161=CYLINDRICAL_SURFACE('',#201,10.);
#162=CYLINDRICAL_SURFACE('',#205,14.555);
#163=CYLINDRICAL_SURFACE('',#214,30.);
#164=CYLINDRICAL_SURFACE('',#217,30.);
#165=CYLINDRICAL_SURFACE('',#220,14.5551581244756);
#166=ADVANCED_FACE('',(#25),#161,.F.);
#167=ADVANCED_FACE('',(#26),#18,.T.);
#168=ADVANCED_FACE('',(#27),#162,.T.);
#169=ADVANCED_FACE('',(#28),#19,.F.);
#170=ADVANCED_FACE('',(#29,#15,#16),#20,.F.);
#171=ADVANCED_FACE('',(#30),#21,.T.);
#172=ADVANCED_FACE('',(#31),#163,.T.);
#173=ADVANCED_FACE('',(#32),#22,.T.);
#174=ADVANCED_FACE('',(#33),#164,.T.);
#175=ADVANCED_FACE('',(#34,#17),#23,.T.);
#176=ADVANCED_FACE('',(#35),#165,.T.);
#177=ADVANCED_FACE('',(#36),#24,.F.);
#178=CLOSED_SHELL('',(#166,#167,#168,#169,#170,#171,#172,#173,#174,#175,
#176,#177));
#179=DERIVED_UNIT_ELEMENT(#182,1.);
#180=DERIVED_UNIT_ELEMENT(#333,-3.);
#181=DIMENSIONAL_EXPONENTS(0.,1.,0.,0.,0.,0.,0.);
#182=(
CONVERSION_BASED_UNIT('gram',#184)
MASS_UNIT()
NAMED_UNIT(#181)
);
#183=(
MASS_UNIT()
NAMED_UNIT(*)
SI_UNIT(.KILO.,.GRAM.)
);
#184=MASS_MEASURE_WITH_UNIT(MASS_MEASURE(0.001),#183);
#185=DERIVED_UNIT((#179,#180));
#186=MEASURE_REPRESENTATION_ITEM('density measure',
POSITIVE_RATIO_MEASURE(1.),#185);
#187=PROPERTY_DEFINITION_REPRESENTATION(#192,#189);
#188=PROPERTY_DEFINITION_REPRESENTATION(#193,#190);
#189=REPRESENTATION('material name',(#191),#330);
#190=REPRESENTATION('density',(#186),#330);
#191=DESCRIPTIVE_REPRESENTATION_ITEM('\X2\04220438043F043E0432044B0435\X0\',
'\X2\04220438043F043E0432044B0435\X0\');
#192=PROPERTY_DEFINITION('material property','material name',#340);
#193=PROPERTY_DEFINITION('material property','density of part',#340);
#194=DATE_TIME_ROLE('creation_date');
#195=APPLIED_DATE_AND_TIME_ASSIGNMENT(#196,#194,(#340));
#196=DATE_AND_TIME(#197,#198);
#197=CALENDAR_DATE(2026,19,4);
#198=LOCAL_TIME(0,0,0.,#199);
#199=COORDINATED_UNIVERSAL_TIME_OFFSET(0,0,.BEHIND.);
#200=AXIS2_PLACEMENT_3D('',#280,#223,#224);
#201=AXIS2_PLACEMENT_3D('',#281,#225,#226);
#202=AXIS2_PLACEMENT_3D('',#283,#227,#228);
#203=AXIS2_PLACEMENT_3D('',#286,#230,#231);
#204=AXIS2_PLACEMENT_3D('',#287,#232,#233);
#205=AXIS2_PLACEMENT_3D('',#288,#234,#235);
#206=AXIS2_PLACEMENT_3D('',#290,#236,#237);
#207=AXIS2_PLACEMENT_3D('',#293,#239,#240);
#208=AXIS2_PLACEMENT_3D('',#294,#241,#242);
#209=AXIS2_PLACEMENT_3D('',#295,#243,#244);
#210=AXIS2_PLACEMENT_3D('',#298,#245,#246);
#211=AXIS2_PLACEMENT_3D('',#302,#248,#249);
#212=AXIS2_PLACEMENT_3D('',#305,#251,#252);
#213=AXIS2_PLACEMENT_3D('',#306,#253,#254);
#214=AXIS2_PLACEMENT_3D('',#312,#258,#259);
#215=AXIS2_PLACEMENT_3D('',#314,#260,#261);
#216=AXIS2_PLACEMENT_3D('',#316,#263,#264);
#217=AXIS2_PLACEMENT_3D('',#320,#267,#268);
#218=AXIS2_PLACEMENT_3D('',#321,#269,#270);
#219=AXIS2_PLACEMENT_3D('',#322,#271,#272);
#220=AXIS2_PLACEMENT_3D('',#323,#273,#274);
#221=AXIS2_PLACEMENT_3D('',#326,#276,#277);
#222=AXIS2_PLACEMENT_3D('',#327,#278,#279);
#223=DIRECTION('axis',(0.,0.,1.));
#224=DIRECTION('refdir',(1.,0.,0.));
#225=DIRECTION('center_axis',(0.,0.,-1.));
#226=DIRECTION('ref_axis',(1.,0.,0.));
#227=DIRECTION('center_axis',(0.,0.,-1.));
#228=DIRECTION('ref_axis',(1.,0.,0.));
#229=DIRECTION('',(0.,0.,-1.));
#230=DIRECTION('center_axis',(0.,0.,-1.));
#231=DIRECTION('ref_axis',(1.,0.,0.));
#232=DIRECTION('center_axis',(0.,0.,1.));
#233=DIRECTION('ref_axis',(1.,0.,0.));
#234=DIRECTION('center_axis',(0.,0.,-1.));
#235=DIRECTION('ref_axis',(-1.,0.,0.));
#236=DIRECTION('center_axis',(0.,0.,-1.));
#237=DIRECTION('ref_axis',(-1.,0.,0.));
#238=DIRECTION('',(0.,0.,1.));
#239=DIRECTION('center_axis',(0.,0.,1.));
#240=DIRECTION('ref_axis',(-1.,0.,0.));
#241=DIRECTION('center_axis',(0.,0.,1.));
#242=DIRECTION('ref_axis',(1.,0.,0.));
#243=DIRECTION('center_axis',(0.,0.,1.));
#244=DIRECTION('ref_axis',(1.,0.,0.));
#245=DIRECTION('center_axis',(0.,0.,1.));
#246=DIRECTION('ref_axis',(1.,0.,0.));
#247=DIRECTION('',(-1.15849359091321E-16,1.,0.));
#248=DIRECTION('center_axis',(0.,0.,1.));
#249=DIRECTION('ref_axis',(-1.,6.140411585764E-17,0.));
#250=DIRECTION('',(-1.15849359091321E-16,-1.,0.));
#251=DIRECTION('center_axis',(0.,0.,1.));
#252=DIRECTION('ref_axis',(1.,0.,0.));
#253=DIRECTION('center_axis',(1.,1.15849359091321E-16,0.));
#254=DIRECTION('ref_axis',(-1.15849359091321E-16,1.,0.));
#255=DIRECTION('',(0.,0.,1.));
#256=DIRECTION('',(-1.15849359091321E-16,1.,0.));
#257=DIRECTION('',(0.,0.,1.));
#258=DIRECTION('center_axis',(0.,0.,1.));
#259=DIRECTION('ref_axis',(-1.,6.140411585764E-17,0.));
#260=DIRECTION('center_axis',(0.,0.,1.));
#261=DIRECTION('ref_axis',(-1.,6.140411585764E-17,0.));
#262=DIRECTION('',(0.,0.,1.));
#263=DIRECTION('center_axis',(-1.,1.15849359091321E-16,0.));
#264=DIRECTION('ref_axis',(-1.15849359091321E-16,-1.,0.));
#265=DIRECTION('',(-1.15849359091321E-16,-1.,0.));
#266=DIRECTION('',(0.,0.,1.));
#267=DIRECTION('center_axis',(0.,0.,1.));
#268=DIRECTION('ref_axis',(1.,0.,0.));
#269=DIRECTION('center_axis',(0.,0.,1.));
#270=DIRECTION('ref_axis',(1.,0.,0.));
#271=DIRECTION('center_axis',(0.,0.,1.));
#272=DIRECTION('ref_axis',(1.,0.,0.));
#273=DIRECTION('center_axis',(0.,0.,1.));
#274=DIRECTION('ref_axis',(1.,0.,0.));
#275=DIRECTION('',(0.,0.,-1.));
#276=DIRECTION('center_axis',(0.,0.,1.));
#277=DIRECTION('ref_axis',(1.,0.,0.));
#278=DIRECTION('center_axis',(0.,0.,1.));
#279=DIRECTION('ref_axis',(1.,0.,0.));
#280=CARTESIAN_POINT('',(0.,0.,0.));
#281=CARTESIAN_POINT('Origin',(-5.55111512312578E-15,105.,55.5));
#282=CARTESIAN_POINT('',(-10.,105.,55.5));
#283=CARTESIAN_POINT('Origin',(-5.55111512312578E-15,105.,55.5));
#284=CARTESIAN_POINT('',(-10.,105.,50.5));
#285=CARTESIAN_POINT('',(-10.,105.,55.5));
#286=CARTESIAN_POINT('Origin',(-5.55111512312578E-15,105.,50.5));
#287=CARTESIAN_POINT('Origin',(-6.10622663543836E-15,105.,50.5));
#288=CARTESIAN_POINT('Origin',(-1.86483038365303E-16,220.,31.5));
#289=CARTESIAN_POINT('',(14.555,220.,0.));
#290=CARTESIAN_POINT('Origin',(-1.86483038365303E-16,220.,0.));
#291=CARTESIAN_POINT('',(14.555,220.,31.5));
#292=CARTESIAN_POINT('',(14.555,220.,31.5));
#293=CARTESIAN_POINT('Origin',(-1.86483038365303E-16,220.,31.5));
#294=CARTESIAN_POINT('Origin',(0.,220.,0.));
#295=CARTESIAN_POINT('Origin',(0.,105.,31.5));
#296=CARTESIAN_POINT('',(30.,220.,31.5));
#297=CARTESIAN_POINT('',(-30.,220.,31.5));
#298=CARTESIAN_POINT('Origin',(-1.86483038365303E-16,220.,31.5));
#299=CARTESIAN_POINT('',(30.,-10.,31.5));
#300=CARTESIAN_POINT('',(30.,-10.,31.5));
#301=CARTESIAN_POINT('',(-30.,-10.,31.5));
#302=CARTESIAN_POINT('Origin',(0.,-10.,31.5));
#303=CARTESIAN_POINT('',(-30.,220.,31.5));
#304=CARTESIAN_POINT('',(-14.5551581244756,-10.,31.5));
#305=CARTESIAN_POINT('Origin',(0.,-10.,31.5));
#306=CARTESIAN_POINT('Origin',(30.,-10.,31.5));
#307=CARTESIAN_POINT('',(30.,220.,55.5));
#308=CARTESIAN_POINT('',(30.,220.,31.5));
#309=CARTESIAN_POINT('',(30.,-10.,55.5));
#310=CARTESIAN_POINT('',(30.,-10.,55.5));
#311=CARTESIAN_POINT('',(30.,-10.,31.5));
#312=CARTESIAN_POINT('Origin',(0.,-10.,31.5));
#313=CARTESIAN_POINT('',(-30.,-10.,55.5));
#314=CARTESIAN_POINT('Origin',(0.,-10.,55.5));
#315=CARTESIAN_POINT('',(-30.,-10.,31.5));
#316=CARTESIAN_POINT('Origin',(-30.,220.,31.5));
#317=CARTESIAN_POINT('',(-30.,220.,55.5));
#318=CARTESIAN_POINT('',(-30.,220.,55.5));
#319=CARTESIAN_POINT('',(-30.,220.,31.5));
#320=CARTESIAN_POINT('Origin',(-1.86483038365303E-16,220.,31.5));
#321=CARTESIAN_POINT('Origin',(-1.86483038365303E-16,220.,55.5));
#322=CARTESIAN_POINT('Origin',(0.,105.,55.5));
#323=CARTESIAN_POINT('Origin',(0.,-10.,0.));
#324=CARTESIAN_POINT('',(-14.5551581244756,-10.,0.));
#325=CARTESIAN_POINT('',(-14.5551581244756,-10.,0.));
#326=CARTESIAN_POINT('Origin',(0.,-10.,0.));
#327=CARTESIAN_POINT('Origin',(0.,-10.,0.));
#328=UNCERTAINTY_MEASURE_WITH_UNIT(LENGTH_MEASURE(0.01),#332,
'DISTANCE_ACCURACY_VALUE',
'Maximum model space distance between geometric entities at asserted c
onnectivities');
#329=UNCERTAINTY_MEASURE_WITH_UNIT(LENGTH_MEASURE(0.01),#332,
'DISTANCE_ACCURACY_VALUE',
'Maximum model space distance between geometric entities at asserted c
onnectivities');
#330=(
GEOMETRIC_REPRESENTATION_CONTEXT(3)
GLOBAL_UNCERTAINTY_ASSIGNED_CONTEXT((#328))
GLOBAL_UNIT_ASSIGNED_CONTEXT((#332,#334,#335))
REPRESENTATION_CONTEXT('','3D')
);
#331=(
GEOMETRIC_REPRESENTATION_CONTEXT(3)
GLOBAL_UNCERTAINTY_ASSIGNED_CONTEXT((#329))
GLOBAL_UNIT_ASSIGNED_CONTEXT((#332,#334,#335))
REPRESENTATION_CONTEXT('','3D')
);
#332=(
LENGTH_UNIT()
NAMED_UNIT(*)
SI_UNIT(.MILLI.,.METRE.)
);
#333=(
LENGTH_UNIT()
NAMED_UNIT(*)
SI_UNIT(.CENTI.,.METRE.)
);
#334=(
NAMED_UNIT(*)
PLANE_ANGLE_UNIT()
SI_UNIT($,.RADIAN.)
);
#335=(
NAMED_UNIT(*)
SI_UNIT($,.STERADIAN.)
SOLID_ANGLE_UNIT()
);
#336=SHAPE_DEFINITION_REPRESENTATION(#337,#338);
#337=PRODUCT_DEFINITION_SHAPE('',$,#340);
#338=SHAPE_REPRESENTATION('',(#200),#330);
#339=PRODUCT_DEFINITION_CONTEXT('part definition',#344,'design');
#340=PRODUCT_DEFINITION('\X2\041A043E043B0435043D043E\X0\',
'\X2\041A043E043B0435043D043E\X0\',#341,#339);
#341=PRODUCT_DEFINITION_FORMATION('',$,#346);
#342=PRODUCT_RELATED_PRODUCT_CATEGORY('\X2\041A043E043B0435043D043E\X0\',
'\X2\041A043E043B0435043D043E\X0\',(#346));
#343=APPLICATION_PROTOCOL_DEFINITION('international standard',
'automotive_design',2009,#344);
#344=APPLICATION_CONTEXT(
'Core Data for Automotive Mechanical Design Process');
#345=PRODUCT_CONTEXT('part definition',#344,'mechanical');
#346=PRODUCT('\X2\041A043E043B0435043D043E\X0\','\X2\041A043E043B0435043D043E\X0\',
$,(#345));
#347=PRESENTATION_STYLE_ASSIGNMENT((#348));
#348=SURFACE_STYLE_USAGE(.BOTH.,#351);
#349=SURFACE_STYLE_RENDERING_WITH_PROPERTIES($,#355,(#350));
#350=SURFACE_STYLE_TRANSPARENT(0.);
#351=SURFACE_SIDE_STYLE('',(#352,#349));
#352=SURFACE_STYLE_FILL_AREA(#353);
#353=FILL_AREA_STYLE('',(#354));
#354=FILL_AREA_STYLE_COLOUR('',#355);
#355=COLOUR_RGB('',0.749019607843137,0.749019607843137,0.749019607843137);
ENDSEC;
END-ISO-10303-21;
