ISO-10303-21;
HEADER;
/* Generated by software containing ST-Developer
 * from STEP Tools, Inc. (www.steptools.com) 
 */

FILE_DESCRIPTION(
/* description */ (''),
/* implementation_level */ '2;1');

FILE_NAME(
/* name */ 'Leg.stp',
/* time_stamp */ '2026-05-26T18:51:56+03:00',
/* author */ ('Artem Sannikov'),
/* organization */ (''),
/* preprocessor_version */ 'ST-DEVELOPER v20.1',
/* originating_system */ 'Autodesk Inventor 2026',
/* authorisation */ '');

FILE_SCHEMA (('AUTOMOTIVE_DESIGN { 1 0 10303 214 3 1 1 }'));
ENDSEC;

DATA;
#10=MECHANICAL_DESIGN_GEOMETRIC_PRESENTATION_REPRESENTATION('',(#17,#18),
#364);
#11=GEOMETRICALLY_BOUNDED_WIREFRAME_SHAPE_REPRESENTATION('',(#12,#13),#363);
#12=GEOMETRIC_CURVE_SET('\X2\042D0441043A04380437\X0\1',(#359));
#13=GEOMETRIC_CURVE_SET('\X2\042D0441043A04380437\X0\4',(#360));
#14=SHAPE_REPRESENTATION_RELATIONSHIP('SRR','None',#371,#16);
#15=SHAPE_REPRESENTATION_RELATIONSHIP('SRR','None',#371,#11);
#16=ADVANCED_BREP_SHAPE_REPRESENTATION('',(#19,#20),#363);
#17=STYLED_ITEM('',(#380),#19);
#18=STYLED_ITEM('',(#380),#20);
#19=MANIFOLD_SOLID_BREP('\X2\04220432043504400434043E0435\X0\ \X2\04420435043B043E\X0\1',
#190);
#20=MANIFOLD_SOLID_BREP('\X2\04220432043504400434043E0435\X0\ \X2\04420435043B043E\X0\1',
#191);
#21=FACE_BOUND('',#49,.T.);
#22=FACE_BOUND('',#50,.T.);
#23=FACE_BOUND('',#52,.T.);
#24=PLANE('',#217);
#25=PLANE('',#234);
#26=PLANE('',#235);
#27=PLANE('',#236);
#28=PLANE('',#238);
#29=FACE_OUTER_BOUND('',#41,.T.);
#30=FACE_OUTER_BOUND('',#42,.T.);
#31=FACE_OUTER_BOUND('',#43,.T.);
#32=FACE_OUTER_BOUND('',#44,.T.);
#33=FACE_OUTER_BOUND('',#45,.T.);
#34=FACE_OUTER_BOUND('',#46,.T.);
#35=FACE_OUTER_BOUND('',#47,.T.);
#36=FACE_OUTER_BOUND('',#48,.T.);
#37=FACE_OUTER_BOUND('',#51,.T.);
#38=FACE_OUTER_BOUND('',#53,.T.);
#39=FACE_OUTER_BOUND('',#54,.T.);
#40=FACE_OUTER_BOUND('',#55,.T.);
#41=EDGE_LOOP('',(#125,#126,#127,#128));
#42=EDGE_LOOP('',(#129));
#43=EDGE_LOOP('',(#130,#131,#132,#133,#134));
#44=EDGE_LOOP('',(#135,#136,#137,#138));
#45=EDGE_LOOP('',(#139,#140,#141,#142));
#46=EDGE_LOOP('',(#143,#144,#145,#146));
#47=EDGE_LOOP('',(#147,#148,#149,#150));
#48=EDGE_LOOP('',(#151,#152,#153,#154));
#49=EDGE_LOOP('',(#155));
#50=EDGE_LOOP('',(#156));
#51=EDGE_LOOP('',(#157,#158,#159,#160));
#52=EDGE_LOOP('',(#161,#162));
#53=EDGE_LOOP('',(#163));
#54=EDGE_LOOP('',(#164,#165));
#55=EDGE_LOOP('',(#166,#167,#168,#169,#170));
#56=LINE('',#312,#63);
#57=LINE('',#319,#64);
#58=LINE('',#328,#65);
#59=LINE('',#331,#66);
#60=LINE('',#337,#67);
#61=LINE('',#343,#68);
#62=LINE('',#358,#69);
#63=VECTOR('',#248,9.5);
#64=VECTOR('',#257,9.5);
#65=VECTOR('',#266,10.);
#66=VECTOR('',#269,10.);
#67=VECTOR('',#276,10.);
#68=VECTOR('',#283,10.);
#69=VECTOR('',#306,9.5);
#70=CIRCLE('',#215,9.5);
#71=CIRCLE('',#216,9.5);
#72=CIRCLE('',#219,9.5);
#73=CIRCLE('',#220,9.5);
#74=CIRCLE('',#221,9.5);
#75=CIRCLE('',#223,40.);
#76=CIRCLE('',#224,40.);
#77=CIRCLE('',#226,575.);
#78=CIRCLE('',#227,575.);
#79=CIRCLE('',#229,65.);
#80=CIRCLE('',#230,65.);
#81=CIRCLE('',#232,575.);
#82=CIRCLE('',#233,575.);
#83=CIRCLE('',#237,9.5);
#84=CIRCLE('',#239,9.5);
#85=CIRCLE('',#240,9.5);
#86=VERTEX_POINT('',#309);
#87=VERTEX_POINT('',#311);
#88=VERTEX_POINT('',#316);
#89=VERTEX_POINT('',#318);
#90=VERTEX_POINT('',#320);
#91=VERTEX_POINT('',#324);
#92=VERTEX_POINT('',#325);
#93=VERTEX_POINT('',#327);
#94=VERTEX_POINT('',#329);
#95=VERTEX_POINT('',#333);
#96=VERTEX_POINT('',#335);
#97=VERTEX_POINT('',#339);
#98=VERTEX_POINT('',#341);
#99=VERTEX_POINT('',#350);
#100=VERTEX_POINT('',#353);
#101=VERTEX_POINT('',#354);
#102=EDGE_CURVE('',#86,#86,#70,.T.);
#103=EDGE_CURVE('',#86,#87,#56,.T.);
#104=EDGE_CURVE('',#87,#87,#71,.T.);
#105=EDGE_CURVE('',#88,#88,#72,.T.);
#106=EDGE_CURVE('',#88,#89,#57,.T.);
#107=EDGE_CURVE('',#90,#89,#73,.T.);
#108=EDGE_CURVE('',#89,#90,#74,.T.);
#109=EDGE_CURVE('',#91,#92,#75,.T.);
#110=EDGE_CURVE('',#92,#93,#58,.T.);
#111=EDGE_CURVE('',#94,#93,#76,.T.);
#112=EDGE_CURVE('',#91,#94,#59,.T.);
#113=EDGE_CURVE('',#95,#91,#77,.T.);
#114=EDGE_CURVE('',#96,#94,#78,.T.);
#115=EDGE_CURVE('',#95,#96,#60,.T.);
#116=EDGE_CURVE('',#97,#95,#79,.T.);
#117=EDGE_CURVE('',#98,#96,#80,.T.);
#118=EDGE_CURVE('',#97,#98,#61,.T.);
#119=EDGE_CURVE('',#92,#97,#81,.T.);
#120=EDGE_CURVE('',#93,#98,#82,.T.);
#121=EDGE_CURVE('',#99,#99,#83,.T.);
#122=EDGE_CURVE('',#100,#101,#84,.T.);
#123=EDGE_CURVE('',#101,#100,#85,.T.);
#124=EDGE_CURVE('',#99,#101,#62,.T.);
#125=ORIENTED_EDGE('',*,*,#102,.F.);
#126=ORIENTED_EDGE('',*,*,#103,.T.);
#127=ORIENTED_EDGE('',*,*,#104,.F.);
#128=ORIENTED_EDGE('',*,*,#103,.F.);
#129=ORIENTED_EDGE('',*,*,#102,.T.);
#130=ORIENTED_EDGE('',*,*,#105,.F.);
#131=ORIENTED_EDGE('',*,*,#106,.T.);
#132=ORIENTED_EDGE('',*,*,#107,.F.);
#133=ORIENTED_EDGE('',*,*,#108,.F.);
#134=ORIENTED_EDGE('',*,*,#106,.F.);
#135=ORIENTED_EDGE('',*,*,#109,.T.);
#136=ORIENTED_EDGE('',*,*,#110,.T.);
#137=ORIENTED_EDGE('',*,*,#111,.F.);
#138=ORIENTED_EDGE('',*,*,#112,.F.);
#139=ORIENTED_EDGE('',*,*,#113,.T.);
#140=ORIENTED_EDGE('',*,*,#112,.T.);
#141=ORIENTED_EDGE('',*,*,#114,.F.);
#142=ORIENTED_EDGE('',*,*,#115,.F.);
#143=ORIENTED_EDGE('',*,*,#116,.T.);
#144=ORIENTED_EDGE('',*,*,#115,.T.);
#145=ORIENTED_EDGE('',*,*,#117,.F.);
#146=ORIENTED_EDGE('',*,*,#118,.F.);
#147=ORIENTED_EDGE('',*,*,#119,.T.);
#148=ORIENTED_EDGE('',*,*,#118,.T.);
#149=ORIENTED_EDGE('',*,*,#120,.F.);
#150=ORIENTED_EDGE('',*,*,#110,.F.);
#151=ORIENTED_EDGE('',*,*,#120,.T.);
#152=ORIENTED_EDGE('',*,*,#117,.T.);
#153=ORIENTED_EDGE('',*,*,#114,.T.);
#154=ORIENTED_EDGE('',*,*,#111,.T.);
#155=ORIENTED_EDGE('',*,*,#104,.T.);
#156=ORIENTED_EDGE('',*,*,#105,.T.);
#157=ORIENTED_EDGE('',*,*,#119,.F.);
#158=ORIENTED_EDGE('',*,*,#109,.F.);
#159=ORIENTED_EDGE('',*,*,#113,.F.);
#160=ORIENTED_EDGE('',*,*,#116,.F.);
#161=ORIENTED_EDGE('',*,*,#108,.T.);
#162=ORIENTED_EDGE('',*,*,#107,.T.);
#163=ORIENTED_EDGE('',*,*,#121,.T.);
#164=ORIENTED_EDGE('',*,*,#122,.T.);
#165=ORIENTED_EDGE('',*,*,#123,.T.);
#166=ORIENTED_EDGE('',*,*,#121,.F.);
#167=ORIENTED_EDGE('',*,*,#124,.T.);
#168=ORIENTED_EDGE('',*,*,#122,.F.);
#169=ORIENTED_EDGE('',*,*,#123,.F.);
#170=ORIENTED_EDGE('',*,*,#124,.F.);
#171=CYLINDRICAL_SURFACE('',#214,9.5);
#172=CYLINDRICAL_SURFACE('',#218,9.5);
#173=CYLINDRICAL_SURFACE('',#222,40.);
#174=CYLINDRICAL_SURFACE('',#225,575.);
#175=CYLINDRICAL_SURFACE('',#228,65.);
#176=CYLINDRICAL_SURFACE('',#231,575.);
#177=CYLINDRICAL_SURFACE('',#241,9.5);
#178=ADVANCED_FACE('',(#29),#171,.T.);
#179=ADVANCED_FACE('',(#30),#24,.T.);
#180=ADVANCED_FACE('',(#31),#172,.F.);
#181=ADVANCED_FACE('',(#32),#173,.T.);
#182=ADVANCED_FACE('',(#33),#174,.F.);
#183=ADVANCED_FACE('',(#34),#175,.T.);
#184=ADVANCED_FACE('',(#35),#176,.F.);
#185=ADVANCED_FACE('',(#36,#21,#22),#25,.T.);
#186=ADVANCED_FACE('',(#37,#23),#26,.F.);
#187=ADVANCED_FACE('',(#38),#27,.F.);
#188=ADVANCED_FACE('',(#39),#28,.T.);
#189=ADVANCED_FACE('',(#40),#177,.T.);
#190=CLOSED_SHELL('',(#178,#179,#180,#181,#182,#183,#184,#185,#186));
#191=CLOSED_SHELL('',(#187,#188,#189));
#192=DERIVED_UNIT_ELEMENT(#195,1.);
#193=DERIVED_UNIT_ELEMENT(#366,-3.);
#194=DIMENSIONAL_EXPONENTS(0.,1.,0.,0.,0.,0.,0.);
#195=(
CONVERSION_BASED_UNIT('gram',#197)
MASS_UNIT()
NAMED_UNIT(#194)
);
#196=(
MASS_UNIT()
NAMED_UNIT(*)
SI_UNIT(.KILO.,.GRAM.)
);
#197=MASS_MEASURE_WITH_UNIT(MASS_MEASURE(0.001),#196);
#198=DERIVED_UNIT((#192,#193));
#199=MEASURE_REPRESENTATION_ITEM('density measure',
POSITIVE_RATIO_MEASURE(1.),#198);
#200=PROPERTY_DEFINITION_REPRESENTATION(#205,#202);
#201=PROPERTY_DEFINITION_REPRESENTATION(#206,#203);
#202=REPRESENTATION('material name',(#204),#363);
#203=REPRESENTATION('density',(#199),#363);
#204=DESCRIPTIVE_REPRESENTATION_ITEM('\X2\04220438043F043E0432044B0435\X0\',
'\X2\04220438043F043E0432044B0435\X0\');
#205=PROPERTY_DEFINITION('material property','material name',#373);
#206=PROPERTY_DEFINITION('material property','density of part',#373);
#207=DATE_TIME_ROLE('creation_date');
#208=APPLIED_DATE_AND_TIME_ASSIGNMENT(#209,#207,(#373));
#209=DATE_AND_TIME(#210,#211);
#210=CALENDAR_DATE(2026,19,4);
#211=LOCAL_TIME(0,0,0.,#212);
#212=COORDINATED_UNIVERSAL_TIME_OFFSET(0,0,.BEHIND.);
#213=AXIS2_PLACEMENT_3D('',#307,#242,#243);
#214=AXIS2_PLACEMENT_3D('',#308,#244,#245);
#215=AXIS2_PLACEMENT_3D('',#310,#246,#247);
#216=AXIS2_PLACEMENT_3D('',#313,#249,#250);
#217=AXIS2_PLACEMENT_3D('',#314,#251,#252);
#218=AXIS2_PLACEMENT_3D('',#315,#253,#254);
#219=AXIS2_PLACEMENT_3D('',#317,#255,#256);
#220=AXIS2_PLACEMENT_3D('',#321,#258,#259);
#221=AXIS2_PLACEMENT_3D('',#322,#260,#261);
#222=AXIS2_PLACEMENT_3D('',#323,#262,#263);
#223=AXIS2_PLACEMENT_3D('',#326,#264,#265);
#224=AXIS2_PLACEMENT_3D('',#330,#267,#268);
#225=AXIS2_PLACEMENT_3D('',#332,#270,#271);
#226=AXIS2_PLACEMENT_3D('',#334,#272,#273);
#227=AXIS2_PLACEMENT_3D('',#336,#274,#275);
#228=AXIS2_PLACEMENT_3D('',#338,#277,#278);
#229=AXIS2_PLACEMENT_3D('',#340,#279,#280);
#230=AXIS2_PLACEMENT_3D('',#342,#281,#282);
#231=AXIS2_PLACEMENT_3D('',#344,#284,#285);
#232=AXIS2_PLACEMENT_3D('',#345,#286,#287);
#233=AXIS2_PLACEMENT_3D('',#346,#288,#289);
#234=AXIS2_PLACEMENT_3D('',#347,#290,#291);
#235=AXIS2_PLACEMENT_3D('',#348,#292,#293);
#236=AXIS2_PLACEMENT_3D('',#349,#294,#295);
#237=AXIS2_PLACEMENT_3D('',#351,#296,#297);
#238=AXIS2_PLACEMENT_3D('',#352,#298,#299);
#239=AXIS2_PLACEMENT_3D('',#355,#300,#301);
#240=AXIS2_PLACEMENT_3D('',#356,#302,#303);
#241=AXIS2_PLACEMENT_3D('',#357,#304,#305);
#242=DIRECTION('axis',(0.,0.,1.));
#243=DIRECTION('refdir',(1.,0.,0.));
#244=DIRECTION('center_axis',(0.,0.,1.));
#245=DIRECTION('ref_axis',(1.,0.,0.));
#246=DIRECTION('center_axis',(0.,0.,1.));
#247=DIRECTION('ref_axis',(1.,0.,0.));
#248=DIRECTION('',(0.,0.,-1.));
#249=DIRECTION('center_axis',(0.,0.,-1.));
#250=DIRECTION('ref_axis',(1.,0.,0.));
#251=DIRECTION('center_axis',(0.,0.,1.));
#252=DIRECTION('ref_axis',(1.,0.,0.));
#253=DIRECTION('center_axis',(0.,0.,1.));
#254=DIRECTION('ref_axis',(-1.,0.,0.));
#255=DIRECTION('center_axis',(0.,0.,-1.));
#256=DIRECTION('ref_axis',(-1.,0.,0.));
#257=DIRECTION('',(0.,0.,-1.));
#258=DIRECTION('center_axis',(0.,0.,1.));
#259=DIRECTION('ref_axis',(1.,0.,0.));
#260=DIRECTION('center_axis',(0.,0.,1.));
#261=DIRECTION('ref_axis',(1.,0.,0.));
#262=DIRECTION('center_axis',(0.,0.,1.));
#263=DIRECTION('ref_axis',(-0.892834368727787,-0.450385157413579,0.));
#264=DIRECTION('center_axis',(0.,0.,1.));
#265=DIRECTION('ref_axis',(1.,0.,0.));
#266=DIRECTION('',(0.,0.,1.));
#267=DIRECTION('center_axis',(0.,0.,1.));
#268=DIRECTION('ref_axis',(1.,0.,0.));
#269=DIRECTION('',(0.,0.,1.));
#270=DIRECTION('center_axis',(0.,0.,1.));
#271=DIRECTION('ref_axis',(-1.,0.,0.));
#272=DIRECTION('center_axis',(0.,0.,-1.));
#273=DIRECTION('ref_axis',(-1.,0.,0.));
#274=DIRECTION('center_axis',(0.,0.,-1.));
#275=DIRECTION('ref_axis',(-1.,0.,0.));
#276=DIRECTION('',(0.,0.,1.));
#277=DIRECTION('center_axis',(0.,0.,1.));
#278=DIRECTION('ref_axis',(1.,0.,0.));
#279=DIRECTION('center_axis',(0.,0.,1.));
#280=DIRECTION('ref_axis',(1.,0.,0.));
#281=DIRECTION('center_axis',(0.,0.,1.));
#282=DIRECTION('ref_axis',(1.,0.,0.));
#283=DIRECTION('',(0.,0.,1.));
#284=DIRECTION('center_axis',(0.,0.,1.));
#285=DIRECTION('ref_axis',(-1.,0.,0.));
#286=DIRECTION('center_axis',(0.,0.,-1.));
#287=DIRECTION('ref_axis',(-1.,0.,0.));
#288=DIRECTION('center_axis',(0.,0.,-1.));
#289=DIRECTION('ref_axis',(-1.,0.,0.));
#290=DIRECTION('center_axis',(0.,0.,1.));
#291=DIRECTION('ref_axis',(1.,0.,0.));
#292=DIRECTION('center_axis',(0.,0.,1.));
#293=DIRECTION('ref_axis',(1.,0.,0.));
#294=DIRECTION('center_axis',(0.,0.,1.));
#295=DIRECTION('ref_axis',(1.,0.,0.));
#296=DIRECTION('center_axis',(0.,0.,-1.));
#297=DIRECTION('ref_axis',(1.,0.,0.));
#298=DIRECTION('center_axis',(0.,0.,1.));
#299=DIRECTION('ref_axis',(1.,0.,0.));
#300=DIRECTION('center_axis',(0.,0.,1.));
#301=DIRECTION('ref_axis',(1.,0.,0.));
#302=DIRECTION('center_axis',(0.,0.,1.));
#303=DIRECTION('ref_axis',(1.,0.,0.));
#304=DIRECTION('center_axis',(0.,0.,-1.));
#305=DIRECTION('ref_axis',(1.,0.,0.));
#306=DIRECTION('',(0.,0.,1.));
#307=CARTESIAN_POINT('',(0.,0.,0.));
#308=CARTESIAN_POINT('Origin',(221.64454260287,111.807313547189,45.));
#309=CARTESIAN_POINT('',(212.14454260287,111.807313547189,90.));
#310=CARTESIAN_POINT('Origin',(221.64454260287,111.807313547189,90.));
#311=CARTESIAN_POINT('',(212.14454260287,111.807313547189,45.));
#312=CARTESIAN_POINT('',(212.14454260287,111.807313547189,45.));
#313=CARTESIAN_POINT('Origin',(221.64454260287,111.807313547189,45.));
#314=CARTESIAN_POINT('Origin',(221.64454260287,111.807313547189,90.));
#315=CARTESIAN_POINT('Origin',(0.,0.,0.));
#316=CARTESIAN_POINT('',(9.5,0.,45.));
#317=CARTESIAN_POINT('Origin',(0.,0.,45.));
#318=CARTESIAN_POINT('',(9.5,0.,0.));
#319=CARTESIAN_POINT('',(9.5,1.16341445918999E-15,0.));
#320=CARTESIAN_POINT('',(-9.5,1.16341445918999E-15,0.));
#321=CARTESIAN_POINT('Origin',(0.,0.,0.));
#322=CARTESIAN_POINT('Origin',(0.,0.,0.));
#323=CARTESIAN_POINT('Origin',(0.,0.,0.));
#324=CARTESIAN_POINT('',(-14.3884560312374,37.3225445680911,0.));
#325=CARTESIAN_POINT('',(21.4650827600064,-33.7527809536648,0.));
#326=CARTESIAN_POINT('Origin',(0.,0.,0.));
#327=CARTESIAN_POINT('',(21.4650827600064,-33.7527809536648,45.));
#328=CARTESIAN_POINT('',(21.4650827600064,-33.7527809536648,0.));
#329=CARTESIAN_POINT('',(-14.3884560312374,37.3225445680911,45.));
#330=CARTESIAN_POINT('Origin',(0.,0.,45.));
#331=CARTESIAN_POINT('',(-14.3884560312374,37.3225445680911,0.));
#332=CARTESIAN_POINT('Origin',(-221.222511480276,573.8341227344,0.));
#333=CARTESIAN_POINT('',(176.665857422551,158.731911355265,0.));
#334=CARTESIAN_POINT('Origin',(-221.222511480276,573.8341227344,0.));
#335=CARTESIAN_POINT('',(176.665857422551,158.731911355265,45.));
#336=CARTESIAN_POINT('Origin',(-221.222511480276,573.8341227344,45.));
#337=CARTESIAN_POINT('',(176.665857422551,158.731911355265,0.));
#338=CARTESIAN_POINT('Origin',(221.64454260287,111.807313547189,0.));
#339=CARTESIAN_POINT('',(232.651998562393,47.7461247251016,0.));
#340=CARTESIAN_POINT('Origin',(221.64454260287,111.807313547189,0.));
#341=CARTESIAN_POINT('',(232.651998562393,47.7461247251016,45.));
#342=CARTESIAN_POINT('Origin',(221.64454260287,111.807313547189,45.));
#343=CARTESIAN_POINT('',(232.651998562393,47.7461247251016,0.));
#344=CARTESIAN_POINT('Origin',(330.025647435098,-518.949007162596,0.));
#345=CARTESIAN_POINT('Origin',(330.025647435098,-518.949007162596,0.));
#346=CARTESIAN_POINT('Origin',(330.025647435098,-518.949007162596,45.));
#347=CARTESIAN_POINT('Origin',(123.322271301435,68.4036567735946,45.));
#348=CARTESIAN_POINT('Origin',(123.322271301435,68.4036567735946,0.));
#349=CARTESIAN_POINT('Origin',(0.,0.,-5.));
#350=CARTESIAN_POINT('',(-9.5,1.16341445918999E-15,-5.));
#351=CARTESIAN_POINT('Origin',(0.,0.,-5.));
#352=CARTESIAN_POINT('Origin',(0.,0.,0.));
#353=CARTESIAN_POINT('',(9.5,0.,0.));
#354=CARTESIAN_POINT('',(-9.5,1.16341445918999E-15,0.));
#355=CARTESIAN_POINT('Origin',(0.,0.,0.));
#356=CARTESIAN_POINT('Origin',(0.,0.,0.));
#357=CARTESIAN_POINT('Origin',(0.,0.,0.));
#358=CARTESIAN_POINT('',(-9.5,1.16341445918999E-15,0.));
#359=CARTESIAN_POINT('',(0.,0.,0.));
#360=CARTESIAN_POINT('',(0.,0.,45.));
#361=UNCERTAINTY_MEASURE_WITH_UNIT(LENGTH_MEASURE(0.01),#365,
'DISTANCE_ACCURACY_VALUE',
'Maximum model space distance between geometric entities at asserted c
onnectivities');
#362=UNCERTAINTY_MEASURE_WITH_UNIT(LENGTH_MEASURE(0.01),#365,
'DISTANCE_ACCURACY_VALUE',
'Maximum model space distance between geometric entities at asserted c
onnectivities');
#363=(
GEOMETRIC_REPRESENTATION_CONTEXT(3)
GLOBAL_UNCERTAINTY_ASSIGNED_CONTEXT((#361))
GLOBAL_UNIT_ASSIGNED_CONTEXT((#365,#367,#368))
REPRESENTATION_CONTEXT('','3D')
);
#364=(
GEOMETRIC_REPRESENTATION_CONTEXT(3)
GLOBAL_UNCERTAINTY_ASSIGNED_CONTEXT((#362))
GLOBAL_UNIT_ASSIGNED_CONTEXT((#365,#367,#368))
REPRESENTATION_CONTEXT('','3D')
);
#365=(
LENGTH_UNIT()
NAMED_UNIT(*)
SI_UNIT(.MILLI.,.METRE.)
);
#366=(
LENGTH_UNIT()
NAMED_UNIT(*)
SI_UNIT(.CENTI.,.METRE.)
);
#367=(
NAMED_UNIT(*)
PLANE_ANGLE_UNIT()
SI_UNIT($,.RADIAN.)
);
#368=(
NAMED_UNIT(*)
SI_UNIT($,.STERADIAN.)
SOLID_ANGLE_UNIT()
);
#369=SHAPE_DEFINITION_REPRESENTATION(#370,#371);
#370=PRODUCT_DEFINITION_SHAPE('',$,#373);
#371=SHAPE_REPRESENTATION('',(#213),#363);
#372=PRODUCT_DEFINITION_CONTEXT('part definition',#377,'design');
#373=PRODUCT_DEFINITION('\X2\041D043E04330430\X0\','\X2\041D043E04330430\X0\',
#374,#372);
#374=PRODUCT_DEFINITION_FORMATION('',$,#379);
#375=PRODUCT_RELATED_PRODUCT_CATEGORY('\X2\041D043E04330430\X0\',
'\X2\041D043E04330430\X0\',(#379));
#376=APPLICATION_PROTOCOL_DEFINITION('international standard',
'automotive_design',2009,#377);
#377=APPLICATION_CONTEXT(
'Core Data for Automotive Mechanical Design Process');
#378=PRODUCT_CONTEXT('part definition',#377,'mechanical');
#379=PRODUCT('\X2\041D043E04330430\X0\','\X2\041D043E04330430\X0\',$,(#378));
#380=PRESENTATION_STYLE_ASSIGNMENT((#382));
#381=PRESENTATION_STYLE_ASSIGNMENT((#383));
#382=SURFACE_STYLE_USAGE(.BOTH.,#386);
#383=SURFACE_STYLE_USAGE(.BOTH.,#387);
#384=SURFACE_STYLE_RENDERING_WITH_PROPERTIES($,#394,(#385));
#385=SURFACE_STYLE_TRANSPARENT(0.);
#386=SURFACE_SIDE_STYLE('',(#388,#384));
#387=SURFACE_SIDE_STYLE('',(#389));
#388=SURFACE_STYLE_FILL_AREA(#390);
#389=SURFACE_STYLE_FILL_AREA(#391);
#390=FILL_AREA_STYLE('',(#392));
#391=FILL_AREA_STYLE('',(#393));
#392=FILL_AREA_STYLE_COLOUR('',#394);
#393=FILL_AREA_STYLE_COLOUR('',#395);
#394=COLOUR_RGB('',0.749019607843137,0.749019607843137,0.749019607843137);
#395=COLOUR_RGB('',1.,1.,0.);
ENDSEC;
END-ISO-10303-21;
